<svg xmlns="http://www.w3.org/2000/svg" viewBox="0 0 640 480">
  <defs>
    <style>
      .cls-1 {
        fill: #33302d;
      }

      .cls-2 {
        fill: #f7cd84;
        stroke: #a87936;
        stroke-width: 5px;
      }

      .cls-2,
      .cls-4 {
        stroke-miterlimit: 10;
      }

      .cls-3 {
        fill: #63523e;
      }

      .cls-4 {
        fill: none;
        stroke: #63523e;
        stroke-linecap: round;
        stroke-width: 2px;
      }

      .cls-5 {
        fill: #a87936;
      }

      .cls-6 {
        fill: #f7eacd;
      }

      .cls-7 {
        fill: #332110;
      }

      .cls-8 {
        fill: #fff;
      }
    </style>
  </defs>
  <title>DecafGirraffe404</title>
  <g id="Layer_13" data-name="Layer 13">
    <rect class="cls-1" x="226.62" y="16.94" width="28.75" height="414" />
    <rect class="cls-1" x="100.26" y="16.94" width="28.75" height="414" />
  </g>
  <g id="Layer_10" data-name="Layer 10">
    <path
      class="cls-2"
      d="M336.18,339.9c9.25,9.75,13.84,13.52,31.13,35.25,11.4,14.33,23,28,22.75,24.06-.5-9.31.44-23.55.57-39.53a3.32,3.32,0,0,1,3.85-3.26,186.1,186.1,0,0,1,27.5,6.74c1.93.63,8.56,1.4,10.4,2.06,2.7,1,6.75,1.38.19-5.5-8-8.4-9.28-20.52-13.57-31.31-1-2.49,6.71-15.2,9.32-14.58l8.67,1.67c2.73.65,5.49-7.87,3.33-9.67-23.67-19.67,31.5-12,8.06-29.87-.46-.35-34-27.06-34.39-27.46-51.83-49.33-67.12-58.71-67.33-63.33-.2-4.21,2.67-9.33,2.67-9.33a133.52,133.52,0,0,1,8-19.33c23.25-46.08,34.88-69.12,28.67-75.33-2.24-2.24-7.49-1-18,1.33s-25.14,9.71-32.29,19.42c-1.83,2.49-2.87,8.25-3,13.63-.19,8.09-2.52,9.93-4.71,11.63-2.74,2.12-9.93,3.61-10-.45-.09-21.18-6.51-15.92-5.38-31.55,3.4-46.9.19-52.6-3.33-55.33-5.15-4-14.15-4.09-20-.67a14.83,14.83,0,0,0-6.67,8c-1.55,5.08.86,9.54,2,12.67,5,13.58-2.06,34.2-12,37.33-6.85,2.16-15.92-3.72-20.67-10-7.39-9.76-2.12-17.56-9.33-35.33-3.14-7.74-6.27-15.46-12.67-16.67-7.22-1.37-15.83,6.09-18,14-1.75,6.39.94,12.21,2,14.67,11.05,25.58,6.77,60.41,2.67,61.33-2.31.52-28.47-18.48-30.54-20.7-.83-.89-12.95-7.87-13.58-8.17-15.64-7.5-29.1-19.66-45.19-5.3-6.43,5.74-6.37,11.1-.12,14.29,15.8,8.06,20.12,46.25,38.46,53.88,6.76,2.81,28.07,3.58,30.39,5.38,1.5,1.17-4,.42-4.08,10.17-.09,7.3.11,9.07,1.33,13.29,2.85,9.83,6.47,13,12.67,25.17,1.47,2.87,1.49,3.27,6.67,16.67,11.94,30.9,13,31.84,13.33,37.33.7,11.78-4,10.49-5.33,28-.7,9.35-1.49,22.09,5.33,34.67,2.9,5.35,7.72,14.23,17.33,16.67,12.11,3.07,22.92-6.36,24-7.33,8.75-7.86,9.56-12.76,21.67-31.83,4.71-7.42.21-12.17,7.83-10.33,4.68,1.12,1.5-.4,12.5,10.83,6,6.16,12.22,10.37,17,18.33C329.43,331.35,331.5,335,336.18,339.9Z"
    />
    <path
      class="cls-3"
      d="M264,277.21a13,13,0,0,0-4.95,9.21c-.07,1.05.11,2.32,1.05,2.78a2.48,2.48,0,0,0,1.3.17A7.17,7.17,0,0,0,265,288a14.28,14.28,0,0,0,2.46-2.51l2.21-2.66c2.19-2.63,5-7.14,1.9-10.31-1.25-1.28-2.69-.89-3.78.42A22.24,22.24,0,0,1,264,277.21Z"
    />
    <path
      class="cls-3"
      d="M232,274.71a1.39,1.39,0,0,0-.48-.35.94.94,0,0,0-1,.42,2.43,2.43,0,0,0-.33,1.13c-.55,5.06,1.76,10.08,5.06,14a5.14,5.14,0,0,0,2,1.64,2,2,0,0,0,2.36-.64,2.82,2.82,0,0,0,.27-1.53c0-2.47-.15-6.2-1.49-8.37S233.94,276.61,232,274.71Z"
    />
    <path
      class="cls-3"
      d="M354.17,104.11c2.53-.69,6-.77,7,1.64.77,1.78-.36,3.81-1.65,5.26s-2.86,2.88-3.14,4.81c-.36,2.51,1.6,4.69,3.32,6.55s3.48,4.34,2.63,6.73c-1.24,3.52-7.17,4-7.63,7.73a12,12,0,0,0,.47,3.3,7.24,7.24,0,0,1-5.35,7.89c-1.29.29-2.69.23-3.88.81-2.56,1.27-3.21,5.05-5.89,6a1.89,1.89,0,0,1-.67.13,2,2,0,0,1-1.65-1.51c-.7-2.15.59-4.45,2.11-6.12s3.38-3.17,4.2-5.28a12.6,12.6,0,0,0,.62-3.91l.74-14.36a17.2,17.2,0,0,0-.17-4.53c-.33-1.51-1.06-2.91-1.33-4.43C342.69,108.18,349,105.51,354.17,104.11Z"
    />
    <path
      class="cls-3"
      d="M156.8,114.31c-.91,2.5,1.36,5.11,3.83,6.11s5.26,1.09,7.63,2.32,4.14,4.39,2.56,6.54c-1.06,1.45-3.36,2.06-3.57,3.84a3.13,3.13,0,0,0,1.35,2.62c4.34,3.55,11.76,1.07,15.75,5a9.15,9.15,0,0,1-2.47,1.24c-.82.43-1.52,1.5-1,2.25a2.08,2.08,0,0,0,1.68.59q8.48.31,17,.38a1.92,1.92,0,0,0,1.69-.56,1.66,1.66,0,0,0-.1-1.6c-1.43-2.95-4.85-4.22-7.59-6C179.71,128,177.59,103.64,156.8,114.31Z"
    />
    <path
      class="cls-4"
      d="M253.22,198.25a63.93,63.93,0,0,0-6.75,22c-.53,4.58-.57,9.25-1.7,13.73-1.92,7.63-6.86,14.18-9.2,21.69"
    />
    <path
      class="cls-4"
      d="M246.72,141.19c-.17-4.68.5-9.57,3.15-13.43s7.63-6.37,12.12-5"
    />
    <path
      class="cls-4"
      d="M226.86,98.45a375.47,375.47,0,0,1-3.1-41.08c-.06-3.06.19-6.66,2.76-8.31"
    />
    <path class="cls-4" d="M297.44,177.81a32.33,32.33,0,0,1,13.37-28.42" />
    <path class="cls-4" d="M202.62,161.74a35.14,35.14,0,0,1,22.69,2.74" />
    <path
      class="cls-4"
      d="M324.39,219.91c4,11.52-.15,24.5-4.24,36-3.66,10.25-7.51,20.85-14.45,28.35-4.09,4.42-9.13,7.61-12.76,12.57"
    />
    <path
      class="cls-5"
      d="M393.77,230.83l-3.19,20a41,41,0,0,0-.75,8.68,41,41,0,0,0,2.27,10l9.48,29.91c.9,2.84,1.85,5.76,3.8,8s4.69,3.59,7.36,4.89l19.36,9.38c1.34.65,2.83,1.31,4.27.92a6.26,6.26,0,0,0,3-2.63l18.38-24.83c2.33-3.15,4.73-7.45,2.54-10.7"
    />
    <path
      class="cls-5"
      d="M356.41,298.47a33.06,33.06,0,0,0-.55,9.34c.58,4.5,2.91,8.55,5.19,12.47,1.34,2.31,2.82,4.75,5.23,5.9,2.61,1.25,5.72.71,8.44-.26a30.16,30.16,0,0,0,16.2-13.83,14,14,0,0,0,2-6.21,18.24,18.24,0,0,0-1.15-5.89l-10.17-32.44c-4.24-13.54-12.74-6.47-17.24,2.44S357.94,288.77,356.41,298.47Z"
    />
    <path
      class="cls-5"
      d="M332.19,260.79c-.32,2.78-.17,5.61-.6,8.37-.68,4.33-2.79,8.33-3.58,12.65s.2,9.52,4.06,11.61c2.24,1.22,5,1.11,7.49.83,3.53-.39,7.29-1.17,9.74-3.74s3.08-6.49,4.18-10c1.64-5.16,4.65-9.77,7-14.67s3.92-10.48,2.52-15.72C357.22,228.7,333.8,247,332.19,260.79Z"
    />
    <path
      class="cls-5"
      d="M375.11,242.58a4.33,4.33,0,0,0,1.72,1.38c1.51.52,3-.68,4.06-1.91,3.11-3.77,4.67-8.57,5.78-13.33a9.85,9.85,0,0,0,.37-3.34c-.39-3.37-3.76-5.42-6.62-7.25-6.17-4-10.95-9.14-15.94-14.41-2.94-3.11-9.27-7.29-10.27-.24-.78,5.49,5.54,15.7,8,20.41A98,98,0,0,0,375.11,242.58Z"
    />
    <path
      class="cls-5"
      d="M375.19,349.7a30,30,0,0,0-6.49,6.7c-3.26,5.18-3,12-.77,17.68s6.24,10.51,10.3,15.09a321.7,321.7,0,0,0,32.68,32c1,.83,2.12,1.71,3.4,1.57s2.26-1.31,3-2.4c7.62-10.93,13.59-23.87,25-30.68,2.17-1.29,4.59-2.4,6-4.46,2.94-4.13.79-9.79-1.15-14.48a126.93,126.93,0,0,1-8-28.17c-.47-2.9-.92-6-2.83-8.22-2.17-2.54-5.7-3.35-9-4-7.94-1.59-19.64-6.57-26.7-2C391.67,334.13,383.49,342.76,375.19,349.7Z"
    />
    <path
      class="cls-5"
      d="M334.13,311.9c3,2.2,5.17,5.38,7.25,8.49l6,8.91a53,53,0,0,1,4.93,8.46c2.84,6.64,2.85,14.1,2.82,21.32C346,344,330.81,333.5,320.35,319.29c-3.36-4.56-10.38-10.16-1.84-11.2A23.65,23.65,0,0,1,334.13,311.9Z"
    />
    <path
      class="cls-5"
      d="M307.29,255.31c-2.25,4.54-4.57,9.38-4.06,14.42a2.21,2.21,0,0,0,.6,1.51,1.93,1.93,0,0,0,1.07.38,6.82,6.82,0,0,0,5.64-2.66,20.11,20.11,0,0,0,3-5.71c1.3-3.29,9.08-22.62,3.93-23.74C313.11,238.56,308.7,252.48,307.29,255.31Z"
    />
    <path
      class="cls-5"
      d="M345.42,227.21a6.78,6.78,0,0,0,4.64-1.2c.91-3.88,1.83-7.9,1.06-11.81a26.17,26.17,0,0,0-2.75-6.93,178.74,178.74,0,0,0-9.88-16.69q-1.87,6-4.22,11.93c-2,5-2.23,4.14.35,7.89,1.92,2.79,4.9,4.84,6.78,7.81C341.94,219.05,345.26,227.2,345.42,227.21Z"
    />
    <path
      class="cls-6"
      d="M214.16,55.8c.79,6.07,3.95,11.57,5.5,17.49,3.31,12.61-.81,26.09,1.27,39,.55,3.38,1.58,6.81,3.81,9.41s5.88,4.21,9.17,3.25c4.5-1.3,6.61-6.7,6.23-11.37s-2.5-9-3.65-13.54c-2.79-11.09.4-23.07-2.6-34.11-1.2-4.43-3.37-8.57-4.31-13.06-.53-2.57-.67-5.26-1.72-7.66C222.56,33.11,213.25,48.8,214.16,55.8Z"
    />
    <path
      class="cls-6"
      d="M237.52,131.17c-2.41,3.21-3.86,7.45-3,11.42s4.64,7.31,8.5,6.73a11.58,11.58,0,0,0,4-1.66c6.09-3.57,22.71-16.34,16.05-25C256.36,113.83,241.87,125.36,237.52,131.17Z"
    />
    <path
      class="cls-6"
      d="M291.26,44.93c-2.6-.71-5.44,1.1-6.48,3.59a9.52,9.52,0,0,0,.67,7.81,14.31,14.31,0,0,0,7.87,6.95,4.73,4.73,0,0,0,3.59.13c1.36-.66,2-2.25,2.34-3.71,1-3.55,1.49-7.43.12-10.85s-5.16-6.09-8.7-5.08"
    />
    <path
      class="cls-6"
      d="M286.4,79.91c-.63,1.77-.92,3.64-1.62,5.38-1.11,2.79-3.16,5.07-4.85,7.55-3.62,5.33-5.58,12.18-3.64,18.33a6.24,6.24,0,0,0,1.82,3.05c1.54,1.25,3.73,1.13,5.7,1,2.55-.23,5.21-.51,7.34-1.93,3.46-2.31,4.47-6.92,4.58-11.08.11-4.55-.52-9.18.58-13.59.82-3.28,2.57-6.33,2.87-9.69C300.24,67.27,288.91,72.87,286.4,79.91Z"
    />
    <path
      class="cls-6"
      d="M280.53,165c-1.33,6.36,1,13.66,6.55,17.11,6,3.73,14.2,2.13,19.65-2.32,1.85-1.51,3.48-3.33,5.52-4.58,2.82-1.73,6.22-2.25,9.19-3.71a27,27,0,0,0,8-6.8c2.34-2.68,4.56-5.58,5.62-9s.74-7.4-1.59-10.09a12.81,12.81,0,0,0-5-3.23C312.47,135.84,284.31,146.92,280.53,165Z"
    />
    <path
      class="cls-6"
      d="M358.47,89.05c-6.74,2.19-13.22,5.59-18.1,10.72a8.73,8.73,0,0,0-2.46,4,3.64,3.64,0,0,0,1.66,4.06,4.9,4.9,0,0,0,3.33,0c6.29-1.68,11.55-6.06,17.75-8,4.25-1.34,8.84-1.51,12.92-3.29s9.74-8,3.48-10.76C372.66,83.76,362.8,87.64,358.47,89.05Z"
    />
    <path
      class="cls-6"
      d="M132.14,95.1c-1.33,1.55-1.16,3.94-.23,5.75a20.65,20.65,0,0,0,3.92,4.65,41.43,41.43,0,0,1,9.5,15.36c1.12,3.24,1.87,6.68,3.81,9.5,1.07,1.55,3,3,4.7,2.26s2.08-2.94,2-4.78a22.17,22.17,0,0,0-6-13.78,23.41,23.41,0,0,1-3.84-4.34c-1-1.69-1.14-4,.2-5.42s3.43-1.33,5.24-1.85S155,99.92,154,98.36a3.69,3.69,0,0,0-2-1.2C147.63,95.68,136,90.56,132.14,95.1Z"
    />
    <path
      class="cls-6"
      d="M205.47,159.12c-1.94.15-4,.37-5.44,1.73-2,1.92-1.51,5.39.31,7.44s4.59,3,7.27,3.51,5.47.85,7.94,2c6.83,3.26,9.4,12.19,16.1,15.72a20.34,20.34,0,0,0,4.83,1.66c4.4,1,9.61,1.31,12.85-1.84a11,11,0,0,0,2.83-5.54,19.09,19.09,0,0,0-4.08-16.45c-5.12-5.94-10.82-5.45-17.69-6.49C221.71,159.57,214.41,158.43,205.47,159.12Z"
    />
    <path
      class="cls-6"
      d="M243,217.67l-11.84,38.21c-1.08,3.49-2.11,7.5-.19,10.61,2.38,3.85,8,4.1,12.27,2.67,11-3.68,17.89-14.91,20.52-26.21s1.9-23.06,2.82-34.62c.23-3,.58-5.95.92-8.91.28-2.44.48-5.19-1.11-7.06C256.66,180.81,244.34,213.43,243,217.67Z"
    />
    <path
      class="cls-6"
      d="M257.65,296.62c7.7.54,16.34,2.08,20.67,8.47a13.77,13.77,0,0,1,2.19,9.6c-.75,5.12-4.28,9.32-7.66,13.23l-7.49,8.64a18.64,18.64,0,0,1-4.66,4.28,15,15,0,0,1-6.63,1.6c-16.2.87-29-11.06-31.15-27C220.5,297.18,245.08,295.73,257.65,296.62Z"
    />
    <path
      class="cls-4"
      d="M252.75,287.68a38.44,38.44,0,0,1-.63-9.83,14.1,14.1,0,0,1,3.93-8.84c2.57-2.45,6.24-3.46,9.79-3.54,3.22-.08,6.63.62,9,2.8a14.5,14.5,0,0,1,2.62,3.47,18.37,18.37,0,0,1,2.09,4.78,12.21,12.21,0,0,1-8.2,14.15"
    />
    <path
      class="cls-4"
      d="M244.37,286.09a25.5,25.5,0,0,0,.81-7.94,11.43,11.43,0,0,0-4.94-8.32,9.37,9.37,0,0,0-9.5-.44,11.15,11.15,0,0,0-4.89,6.83,29.47,29.47,0,0,0-.72,8.56,12.58,12.58,0,0,0,.6,4.24,13.07,13.07,0,0,0,3.55,4.54l6.41,6.07"
    />
    <path
      class="cls-4"
      d="M261,275.89c-2.83,1.36-4.45,4.55-4.68,7.69A5.13,5.13,0,0,0,257,287a6,6,0,0,0,1.87,1.49c1.28.75,2.79,1.46,4.2,1a5.49,5.49,0,0,0,1.63-1c2.52-2.07,5.09-4.19,6.77-7s2.3-6.45.75-9.32a5,5,0,0,0-4.2-2.81"
    />
    <path
      class="cls-4"
      d="M232.27,273a5.6,5.6,0,0,0-2.21,2.51,6.2,6.2,0,0,0,.22,3.27c.59,2.56.84,5.21,1.8,7.65s2.86,4.72,5.43,5.23c1,.2,2.35-.08,2.63-1.09a4.1,4.1,0,0,0,0-1.08c0-2,1.66-3.94.89-5.77"
    />
    <path
      class="cls-3"
      d="M332.69,152.58a78.7,78.7,0,0,0-20.47-.29,5,5,0,0,0-3,1.07c-1.82,1.85.12,6.08,2.88,8s5.89,2.36,8.87,3A56.93,56.93,0,0,1,339.27,172c2.24,1.4,4.5,3,6.86,3.6s4.89-.16,5.22-2.4c.3-2.07-1.29-4.46-2.87-6.41a73.28,73.28,0,0,0-15.6-14.44"
    />
    <path
      class="cls-3"
      d="M205.07,165.67c5.21-2.37,12.34-1.48,15.35,3.39a3.92,3.92,0,0,1,.71,2.62c-.31,1.92-2.6,2.73-4.52,3-6,.88-13,.65-16.9,5.32a11.57,11.57,0,0,1-2,2.24c-4.84,3.44-5.32-3.22-4.4-5.9C194.65,172.48,201.52,167.29,205.07,165.67Z"
    />
    <path
      class="cls-4"
      d="M307.51,203.78c2.86,2.41,3.38,6.68,5.87,9.48a14.7,14.7,0,0,0,2.66,2.23c1.36.95,2.91,1.87,4.56,1.7a7.57,7.57,0,0,0,3.56-1.76"
    />
    <path
      class="cls-4"
      d="M227.58,203.78a27.44,27.44,0,0,1-4.51,7.53,10.45,10.45,0,0,1-7.73,3.65"
    />
    <path
      class="cls-7"
      d="M210.35,179.1c5.24.28,10.47,3,13,7.64,2.8,5.08,2,11.37.3,16.92a7.86,7.86,0,0,1-1.93,3.65,6.36,6.36,0,0,1-3.27,1.4c-5.94,1-11.93-2.33-15.76-7-2.91-3.52-7.86-10.84-6.8-15.74C197.1,180.36,205.56,178.84,210.35,179.1Z"
    />
    <path
      class="cls-7"
      d="M311.08,200.19a23.19,23.19,0,0,0,14.78,6.88,15.29,15.29,0,0,0,7.37-1,13.61,13.61,0,0,0,7-7.88,23.86,23.86,0,0,0,1-10.67,14.89,14.89,0,0,0-1.5-5.63,12.93,12.93,0,0,0-5-4.79,21.63,21.63,0,0,0-15.89-2.24C305.57,178.14,301.45,190.16,311.08,200.19Z"
    />
    <path
      class="cls-4"
      d="M299.19,208.92c4.3,2.89,5.07,8,8.8,11.38a21.64,21.64,0,0,0,4,2.68c2,1.14,4.37,2.24,6.84,2a12.65,12.65,0,0,0,5.34-2.11"
    />
    <path
      class="cls-4"
      d="M236,204.79c-1.84,4.09-3.85,8.19-6.89,11.48s-7.31,5.72-11.79,5.57"
    />
  </g>
  <g id="Layer_11" data-name="Layer 11">
    <path
      class="cls-8"
      d="M323.51,178.63a1.28,1.28,0,0,0-.62.6,1.24,1.24,0,0,0,0,.77c.71,2.41,3.14,3.92,5.56,4.59a2.66,2.66,0,0,1,1.36.65,4.51,4.51,0,0,1,.53,1.07,4,4,0,0,0,.69,1,4.5,4.5,0,0,0,2,1.33,2.41,2.41,0,0,0,2.26-.42,3.89,3.89,0,0,0,.88-2.86,6.79,6.79,0,0,0-.21-2.41,5.8,5.8,0,0,0-2.2-2.61C330.82,178.1,327,176.61,323.51,178.63Z"
    />
    <path
      class="cls-8"
      d="M329.39,189.53c-.65-.22-1.33.46-1.35,1.14a2.45,2.45,0,0,0,.94,1.76,6.07,6.07,0,0,0,3.19,1.52,1.29,1.29,0,0,0,.9-.11,1.36,1.36,0,0,0,.47-.88c.22-1,.23-2.15-.58-2.7a2.75,2.75,0,0,0-1-.35l-3.09-.63"
    />
    <path
      class="cls-8"
      d="M203.31,185.24a5,5,0,0,0,1.85,1.32,11.11,11.11,0,0,0,7.05,1.13,3.31,3.31,0,0,0,2.43-1.63,2.86,2.86,0,0,0-1.54-3.42,9.3,9.3,0,0,0-4-.73C207.56,181.84,200.29,181.39,203.31,185.24Z"
    />
    <path
      class="cls-8"
      d="M200.14,187.88c-.39.94.6,1.86,1.3,2.6a5.71,5.71,0,0,0,2.65,1.42,2.42,2.42,0,0,0,1.93-.05,1.76,1.76,0,0,0,.32-2.38,4.13,4.13,0,0,0-2.18-1.46,14.23,14.23,0,0,0-3.29-.74C200.6,187.24,200.14,187.88,200.14,187.88Z"
    />
  </g>
  <g id="Layer_12" data-name="Layer 12">
    <rect class="cls-1" x="354.75" y="17.49" width="28.75" height="414" />
    <rect class="cls-1" x="477.32" y="19.15" width="28.75" height="414" />
  </g>
</svg>